<svg xmlns="http://www.w3.org/2000/svg" class="" viewBox="0 0 500 1160" width="500" height="1160" style="display: block; user-select: none;"><defs xmlns="http://www.w3.org/1999/xhtml"><style type="text/css">&lt;!--/*--&gt;&lt;![CDATA[/*&gt;&lt;!--*/

  /* from https://fonts.googleapis.com/css2?family=IBM+Plex+Sans&amp;display=swap */
  @font-face {
    font-family: 'IBM Plex Sans';
    font-style: normal;
    font-weight: 400;
    font-display: swap;
    src: url(https://fonts.gstatic.com/s/ibmplexsans/v14/zYXgKVElMYYaJe8bpLHnCwDKhdHeFaxOedc.woff2) format('woff2');
  }
  
  /* from https://fonts.googleapis.com/css2?family=IBM+Plex+Mono&amp;display=swap */
  @font-face {
    font-family: 'IBM Plex Mono';
    font-style: normal;
    font-weight: 400;
    font-display: swap;
    src: url(https://fonts.gstatic.com/s/ibmplexmono/v12/-F63fjptAgt5VM-kVkqdyU8n1i8q131nj-o.woff2) format('woff2');
  }    

/*]]&gt;*/--&gt;</style></defs><rect x="0" y="0" width="500" height="1160" style="fill: rgb(255, 255, 255);"/><g><g transform="translate(20, 0)"><g><g><text x="38.4" y="36" dy=".3em" style="fill: rgb(111, 111, 111); font-family: &quot;IBM Plex Mono&quot;, monospace; font-weight: 400; text-anchor: end; font-size: 14px;"><tspan>q[0]</tspan></text><text x="38.4" y="76" dy=".3em" style="fill: rgb(111, 111, 111); font-family: &quot;IBM Plex Mono&quot;, monospace; font-weight: 400; text-anchor: end; font-size: 14px;"><tspan>q[1]</tspan></text><text x="38.4" y="116" dy=".3em" style="fill: rgb(111, 111, 111); font-family: &quot;IBM Plex Mono&quot;, monospace; font-weight: 400; text-anchor: end; font-size: 14px;"><tspan>q[2]</tspan></text><text x="38.4" y="156" dy=".3em" style="fill: rgb(111, 111, 111); font-family: &quot;IBM Plex Mono&quot;, monospace; font-weight: 400; text-anchor: end; font-size: 14px;"><tspan>q[3]</tspan></text><text x="38.4" y="196" dy=".3em" style="fill: rgb(111, 111, 111); font-family: &quot;IBM Plex Mono&quot;, monospace; font-weight: 400; text-anchor: end; font-size: 14px;"><tspan>q[4]</tspan></text></g><g/></g></g><g><g><line x1="68.4" x2="480" y1="36" y2="36" style="fill: none; stroke: rgb(224, 224, 224); stroke-width: 1; stroke-linecap: round;"/><line x1="68.4" x2="480" y1="76" y2="76" style="fill: none; stroke: rgb(224, 224, 224); stroke-width: 1; stroke-linecap: round;"/><line x1="68.4" x2="480" y1="116" y2="116" style="fill: none; stroke: rgb(224, 224, 224); stroke-width: 1; stroke-linecap: round;"/><line x1="68.4" x2="480" y1="156" y2="156" style="fill: none; stroke: rgb(224, 224, 224); stroke-width: 1; stroke-linecap: round;"/><line x1="68.4" x2="480" y1="196" y2="196" style="fill: none; stroke: rgb(224, 224, 224); stroke-width: 1; stroke-linecap: round;"/></g></g><g><rect x="76.4" y="180" width="32" height="32" style="fill: rgb(250, 77, 86); stroke-width: 0; stroke: transparent; paint-order: stroke;"/><text x="92.4" y="196" dy=".3em" style="font-family: &quot;IBM Plex Sans&quot;, sans-serif; font-size: 16px; font-style: normal; fill: rgb(22, 22, 22); font-weight: 400; text-anchor: middle;">H</text></g><line x1="145.9" y1="36" x2="145.9" y2="196" style="stroke-width: 1; stroke: rgb(159, 24, 83);"/><circle r="4" cx="145.9" cy="36" style="fill: rgb(159, 24, 83);"/><g><rect x="116.4" y="180" width="59" height="32" style="fill: rgb(159, 24, 83); stroke-width: 0; stroke: transparent; paint-order: stroke;"/><text x="145.9" y="193" dy=".3em" style="font-family: &quot;IBM Plex Sans&quot;, sans-serif; font-size: 16px; font-style: normal; fill: rgb(255, 255, 255); font-weight: 400; text-anchor: middle;">RZ</text><text x="145.9" y="206" dy=".3em" style="font-family: &quot;IBM Plex Mono&quot;, monospace; font-size: 8px; font-style: normal; fill: rgb(255, 255, 255); font-weight: 400; text-anchor: middle;">(pi / 8)</text></g><line x1="199.4" y1="36" x2="199.4" y2="76" style="stroke-width: 1; stroke: rgb(0, 45, 156);"/><circle r="4" cx="199.4" cy="36" style="fill: rgb(0, 45, 156);"/><g transform="translate(199.4, 76)"><g><circle cx="0" cy="0" r="16" style="fill: rgb(0, 45, 156); stroke-width: 0; stroke: transparent; paint-order: stroke;"/><line x1="0" y1="-8" x2="0" y2="8" style="stroke-width: 1.25; stroke: rgb(255, 255, 255);"/><line x1="8" y1="0" x2="-8" y2="0" style="stroke-width: 1.25; stroke: rgb(255, 255, 255);"/></g></g><line x1="255.4" y1="76" x2="255.4" y2="196" style="stroke-width: 1; stroke: rgb(159, 24, 83);"/><circle r="4" cx="255.4" cy="76" style="fill: rgb(159, 24, 83);"/><g><rect x="223.4" y="180" width="64" height="32" style="fill: rgb(159, 24, 83); stroke-width: 0; stroke: transparent; paint-order: stroke;"/><text x="255.4" y="193" dy=".3em" style="font-family: &quot;IBM Plex Sans&quot;, sans-serif; font-size: 16px; font-style: normal; fill: rgb(255, 255, 255); font-weight: 400; text-anchor: middle;">RZ</text><text x="255.4" y="206" dy=".3em" style="font-family: &quot;IBM Plex Mono&quot;, monospace; font-size: 8px; font-style: normal; fill: rgb(255, 255, 255); font-weight: 400; text-anchor: middle;">(-pi / 8)</text></g><line x1="311.4" y1="36" x2="311.4" y2="76" style="stroke-width: 1; stroke: rgb(0, 45, 156);"/><circle r="4" cx="311.4" cy="36" style="fill: rgb(0, 45, 156);"/><g transform="translate(311.4, 76)"><g><circle cx="0" cy="0" r="16" style="fill: rgb(0, 45, 156); stroke-width: 0; stroke: transparent; paint-order: stroke;"/><line x1="0" y1="-8" x2="0" y2="8" style="stroke-width: 1.25; stroke: rgb(255, 255, 255);"/><line x1="8" y1="0" x2="-8" y2="0" style="stroke-width: 1.25; stroke: rgb(255, 255, 255);"/></g></g><line x1="364.9" y1="76" x2="364.9" y2="196" style="stroke-width: 1; stroke: rgb(159, 24, 83);"/><circle r="4" cx="364.9" cy="76" style="fill: rgb(159, 24, 83);"/><g><rect x="335.4" y="180" width="59" height="32" style="fill: rgb(159, 24, 83); stroke-width: 0; stroke: transparent; paint-order: stroke;"/><text x="364.9" y="193" dy=".3em" style="font-family: &quot;IBM Plex Sans&quot;, sans-serif; font-size: 16px; font-style: normal; fill: rgb(255, 255, 255); font-weight: 400; text-anchor: middle;">RZ</text><text x="364.9" y="206" dy=".3em" style="font-family: &quot;IBM Plex Mono&quot;, monospace; font-size: 8px; font-style: normal; fill: rgb(255, 255, 255); font-weight: 400; text-anchor: middle;">(pi / 8)</text></g><line x1="418.4" y1="76" x2="418.4" y2="116" style="stroke-width: 1; stroke: rgb(0, 45, 156);"/><circle r="4" cx="418.4" cy="76" style="fill: rgb(0, 45, 156);"/><g transform="translate(418.4, 116)"><g><circle cx="0" cy="0" r="16" style="fill: rgb(0, 45, 156); stroke-width: 0; stroke: transparent; paint-order: stroke;"/><line x1="0" y1="-8" x2="0" y2="8" style="stroke-width: 1.25; stroke: rgb(255, 255, 255);"/><line x1="8" y1="0" x2="-8" y2="0" style="stroke-width: 1.25; stroke: rgb(255, 255, 255);"/></g></g><polygon points="480,31 480,41 485,36" style="fill: rgb(224, 224, 224);"/><polygon points="480,71 480,81 485,76" style="fill: rgb(224, 224, 224);"/><polygon points="480,111 480,121 485,116" style="fill: rgb(224, 224, 224);"/><polygon points="480,151 480,161 485,156" style="fill: rgb(224, 224, 224);"/><polygon points="480,191 480,201 485,196" style="fill: rgb(224, 224, 224);"/></g><g><g transform="translate(20, 0)"><g><g><text x="38.4" y="266" dy=".3em" style="fill: rgb(111, 111, 111); font-family: &quot;IBM Plex Mono&quot;, monospace; font-weight: 400; text-anchor: end; font-size: 14px;"><tspan>q[0]</tspan></text><text x="38.4" y="306" dy=".3em" style="fill: rgb(111, 111, 111); font-family: &quot;IBM Plex Mono&quot;, monospace; font-weight: 400; text-anchor: end; font-size: 14px;"><tspan>q[1]</tspan></text><text x="38.4" y="346" dy=".3em" style="fill: rgb(111, 111, 111); font-family: &quot;IBM Plex Mono&quot;, monospace; font-weight: 400; text-anchor: end; font-size: 14px;"><tspan>q[2]</tspan></text><text x="38.4" y="386" dy=".3em" style="fill: rgb(111, 111, 111); font-family: &quot;IBM Plex Mono&quot;, monospace; font-weight: 400; text-anchor: end; font-size: 14px;"><tspan>q[3]</tspan></text><text x="38.4" y="426" dy=".3em" style="fill: rgb(111, 111, 111); font-family: &quot;IBM Plex Mono&quot;, monospace; font-weight: 400; text-anchor: end; font-size: 14px;"><tspan>q[4]</tspan></text></g><g/></g></g><g><g><line x1="68.4" x2="480" y1="266" y2="266" style="fill: none; stroke: rgb(224, 224, 224); stroke-width: 1; stroke-linecap: round;"/><line x1="68.4" x2="480" y1="306" y2="306" style="fill: none; stroke: rgb(224, 224, 224); stroke-width: 1; stroke-linecap: round;"/><line x1="68.4" x2="480" y1="346" y2="346" style="fill: none; stroke: rgb(224, 224, 224); stroke-width: 1; stroke-linecap: round;"/><line x1="68.4" x2="480" y1="386" y2="386" style="fill: none; stroke: rgb(224, 224, 224); stroke-width: 1; stroke-linecap: round;"/><line x1="68.4" x2="480" y1="426" y2="426" style="fill: none; stroke: rgb(224, 224, 224); stroke-width: 1; stroke-linecap: round;"/></g></g><line x1="108.4" y1="346" x2="108.4" y2="426" style="stroke-width: 1; stroke: rgb(159, 24, 83);"/><circle r="4" cx="108.4" cy="346" style="fill: rgb(159, 24, 83);"/><g><rect x="76.4" y="410" width="64" height="32" style="fill: rgb(159, 24, 83); stroke-width: 0; stroke: transparent; paint-order: stroke;"/><text x="108.4" y="423" dy=".3em" style="font-family: &quot;IBM Plex Sans&quot;, sans-serif; font-size: 16px; font-style: normal; fill: rgb(255, 255, 255); font-weight: 400; text-anchor: middle;">RZ</text><text x="108.4" y="436" dy=".3em" style="font-family: &quot;IBM Plex Mono&quot;, monospace; font-size: 8px; font-style: normal; fill: rgb(255, 255, 255); font-weight: 400; text-anchor: middle;">(-pi / 8)</text></g><line x1="164.4" y1="266" x2="164.4" y2="346" style="stroke-width: 1; stroke: rgb(0, 45, 156);"/><circle r="4" cx="164.4" cy="266" style="fill: rgb(0, 45, 156);"/><g transform="translate(164.4, 346)"><g><circle cx="0" cy="0" r="16" style="fill: rgb(0, 45, 156); stroke-width: 0; stroke: transparent; paint-order: stroke;"/><line x1="0" y1="-8" x2="0" y2="8" style="stroke-width: 1.25; stroke: rgb(255, 255, 255);"/><line x1="8" y1="0" x2="-8" y2="0" style="stroke-width: 1.25; stroke: rgb(255, 255, 255);"/></g></g><line x1="217.9" y1="346" x2="217.9" y2="426" style="stroke-width: 1; stroke: rgb(159, 24, 83);"/><circle r="4" cx="217.9" cy="346" style="fill: rgb(159, 24, 83);"/><g><rect x="188.4" y="410" width="59" height="32" style="fill: rgb(159, 24, 83); stroke-width: 0; stroke: transparent; paint-order: stroke;"/><text x="217.9" y="423" dy=".3em" style="font-family: &quot;IBM Plex Sans&quot;, sans-serif; font-size: 16px; font-style: normal; fill: rgb(255, 255, 255); font-weight: 400; text-anchor: middle;">RZ</text><text x="217.9" y="436" dy=".3em" style="font-family: &quot;IBM Plex Mono&quot;, monospace; font-size: 8px; font-style: normal; fill: rgb(255, 255, 255); font-weight: 400; text-anchor: middle;">(pi / 8)</text></g><line x1="271.4" y1="306" x2="271.4" y2="346" style="stroke-width: 1; stroke: rgb(0, 45, 156);"/><circle r="4" cx="271.4" cy="306" style="fill: rgb(0, 45, 156);"/><g transform="translate(271.4, 346)"><g><circle cx="0" cy="0" r="16" style="fill: rgb(0, 45, 156); stroke-width: 0; stroke: transparent; paint-order: stroke;"/><line x1="0" y1="-8" x2="0" y2="8" style="stroke-width: 1.25; stroke: rgb(255, 255, 255);"/><line x1="8" y1="0" x2="-8" y2="0" style="stroke-width: 1.25; stroke: rgb(255, 255, 255);"/></g></g><line x1="327.4" y1="346" x2="327.4" y2="426" style="stroke-width: 1; stroke: rgb(159, 24, 83);"/><circle r="4" cx="327.4" cy="346" style="fill: rgb(159, 24, 83);"/><g><rect x="295.4" y="410" width="64" height="32" style="fill: rgb(159, 24, 83); stroke-width: 0; stroke: transparent; paint-order: stroke;"/><text x="327.4" y="423" dy=".3em" style="font-family: &quot;IBM Plex Sans&quot;, sans-serif; font-size: 16px; font-style: normal; fill: rgb(255, 255, 255); font-weight: 400; text-anchor: middle;">RZ</text><text x="327.4" y="436" dy=".3em" style="font-family: &quot;IBM Plex Mono&quot;, monospace; font-size: 8px; font-style: normal; fill: rgb(255, 255, 255); font-weight: 400; text-anchor: middle;">(-pi / 8)</text></g><line x1="383.4" y1="266" x2="383.4" y2="346" style="stroke-width: 1; stroke: rgb(0, 45, 156);"/><circle r="4" cx="383.4" cy="266" style="fill: rgb(0, 45, 156);"/><g transform="translate(383.4, 346)"><g><circle cx="0" cy="0" r="16" style="fill: rgb(0, 45, 156); stroke-width: 0; stroke: transparent; paint-order: stroke;"/><line x1="0" y1="-8" x2="0" y2="8" style="stroke-width: 1.25; stroke: rgb(255, 255, 255);"/><line x1="8" y1="0" x2="-8" y2="0" style="stroke-width: 1.25; stroke: rgb(255, 255, 255);"/></g></g><line x1="436.9" y1="346" x2="436.9" y2="426" style="stroke-width: 1; stroke: rgb(159, 24, 83);"/><circle r="4" cx="436.9" cy="346" style="fill: rgb(159, 24, 83);"/><g><rect x="407.4" y="410" width="59" height="32" style="fill: rgb(159, 24, 83); stroke-width: 0; stroke: transparent; paint-order: stroke;"/><text x="436.9" y="423" dy=".3em" style="font-family: &quot;IBM Plex Sans&quot;, sans-serif; font-size: 16px; font-style: normal; fill: rgb(255, 255, 255); font-weight: 400; text-anchor: middle;">RZ</text><text x="436.9" y="436" dy=".3em" style="font-family: &quot;IBM Plex Mono&quot;, monospace; font-size: 8px; font-style: normal; fill: rgb(255, 255, 255); font-weight: 400; text-anchor: middle;">(pi / 8)</text></g><polygon points="63.400000000000006,261 63.400000000000006,271 68.4,266" style="fill: rgb(224, 224, 224);"/><polygon points="63.400000000000006,301 63.400000000000006,311 68.4,306" style="fill: rgb(224, 224, 224);"/><polygon points="63.400000000000006,341 63.400000000000006,351 68.4,346" style="fill: rgb(224, 224, 224);"/><polygon points="63.400000000000006,381 63.400000000000006,391 68.4,386" style="fill: rgb(224, 224, 224);"/><polygon points="63.400000000000006,421 63.400000000000006,431 68.4,426" style="fill: rgb(224, 224, 224);"/><polygon points="480,261 480,271 485,266" style="fill: rgb(224, 224, 224);"/><polygon points="480,301 480,311 485,306" style="fill: rgb(224, 224, 224);"/><polygon points="480,341 480,351 485,346" style="fill: rgb(224, 224, 224);"/><polygon points="480,381 480,391 485,386" style="fill: rgb(224, 224, 224);"/><polygon points="480,421 480,431 485,426" style="fill: rgb(224, 224, 224);"/></g><g><g transform="translate(20, 0)"><g><g><text x="38.4" y="496" dy=".3em" style="fill: rgb(111, 111, 111); font-family: &quot;IBM Plex Mono&quot;, monospace; font-weight: 400; text-anchor: end; font-size: 14px;"><tspan>q[0]</tspan></text><text x="38.4" y="536" dy=".3em" style="fill: rgb(111, 111, 111); font-family: &quot;IBM Plex Mono&quot;, monospace; font-weight: 400; text-anchor: end; font-size: 14px;"><tspan>q[1]</tspan></text><text x="38.4" y="576" dy=".3em" style="fill: rgb(111, 111, 111); font-family: &quot;IBM Plex Mono&quot;, monospace; font-weight: 400; text-anchor: end; font-size: 14px;"><tspan>q[2]</tspan></text><text x="38.4" y="616" dy=".3em" style="fill: rgb(111, 111, 111); font-family: &quot;IBM Plex Mono&quot;, monospace; font-weight: 400; text-anchor: end; font-size: 14px;"><tspan>q[3]</tspan></text><text x="38.4" y="656" dy=".3em" style="fill: rgb(111, 111, 111); font-family: &quot;IBM Plex Mono&quot;, monospace; font-weight: 400; text-anchor: end; font-size: 14px;"><tspan>q[4]</tspan></text></g><g/></g></g><g><g><line x1="68.4" x2="480" y1="496" y2="496" style="fill: none; stroke: rgb(224, 224, 224); stroke-width: 1; stroke-linecap: round;"/><line x1="68.4" x2="480" y1="536" y2="536" style="fill: none; stroke: rgb(224, 224, 224); stroke-width: 1; stroke-linecap: round;"/><line x1="68.4" x2="480" y1="576" y2="576" style="fill: none; stroke: rgb(224, 224, 224); stroke-width: 1; stroke-linecap: round;"/><line x1="68.4" x2="480" y1="616" y2="616" style="fill: none; stroke: rgb(224, 224, 224); stroke-width: 1; stroke-linecap: round;"/><line x1="68.4" x2="480" y1="656" y2="656" style="fill: none; stroke: rgb(224, 224, 224); stroke-width: 1; stroke-linecap: round;"/></g></g><line x1="92.4" y1="576" x2="92.4" y2="616" style="stroke-width: 1; stroke: rgb(0, 45, 156);"/><circle r="4" cx="92.4" cy="576" style="fill: rgb(0, 45, 156);"/><g transform="translate(92.4, 616)"><g><circle cx="0" cy="0" r="16" style="fill: rgb(0, 45, 156); stroke-width: 0; stroke: transparent; paint-order: stroke;"/><line x1="0" y1="-8" x2="0" y2="8" style="stroke-width: 1.25; stroke: rgb(255, 255, 255);"/><line x1="8" y1="0" x2="-8" y2="0" style="stroke-width: 1.25; stroke: rgb(255, 255, 255);"/></g></g><line x1="148.4" y1="616" x2="148.4" y2="656" style="stroke-width: 1; stroke: rgb(159, 24, 83);"/><circle r="4" cx="148.4" cy="616" style="fill: rgb(159, 24, 83);"/><g><rect x="116.4" y="640" width="64" height="32" style="fill: rgb(159, 24, 83); stroke-width: 0; stroke: transparent; paint-order: stroke;"/><text x="148.4" y="653" dy=".3em" style="font-family: &quot;IBM Plex Sans&quot;, sans-serif; font-size: 16px; font-style: normal; fill: rgb(255, 255, 255); font-weight: 400; text-anchor: middle;">RZ</text><text x="148.4" y="666" dy=".3em" style="font-family: &quot;IBM Plex Mono&quot;, monospace; font-size: 8px; font-style: normal; fill: rgb(255, 255, 255); font-weight: 400; text-anchor: middle;">(-pi / 8)</text></g><line x1="204.4" y1="496" x2="204.4" y2="616" style="stroke-width: 1; stroke: rgb(0, 45, 156);"/><circle r="4" cx="204.4" cy="496" style="fill: rgb(0, 45, 156);"/><g transform="translate(204.4, 616)"><g><circle cx="0" cy="0" r="16" style="fill: rgb(0, 45, 156); stroke-width: 0; stroke: transparent; paint-order: stroke;"/><line x1="0" y1="-8" x2="0" y2="8" style="stroke-width: 1.25; stroke: rgb(255, 255, 255);"/><line x1="8" y1="0" x2="-8" y2="0" style="stroke-width: 1.25; stroke: rgb(255, 255, 255);"/></g></g><line x1="257.9" y1="616" x2="257.9" y2="656" style="stroke-width: 1; stroke: rgb(159, 24, 83);"/><circle r="4" cx="257.9" cy="616" style="fill: rgb(159, 24, 83);"/><g><rect x="228.39999999999998" y="640" width="59" height="32" style="fill: rgb(159, 24, 83); stroke-width: 0; stroke: transparent; paint-order: stroke;"/><text x="257.9" y="653" dy=".3em" style="font-family: &quot;IBM Plex Sans&quot;, sans-serif; font-size: 16px; font-style: normal; fill: rgb(255, 255, 255); font-weight: 400; text-anchor: middle;">RZ</text><text x="257.9" y="666" dy=".3em" style="font-family: &quot;IBM Plex Mono&quot;, monospace; font-size: 8px; font-style: normal; fill: rgb(255, 255, 255); font-weight: 400; text-anchor: middle;">(pi / 8)</text></g><line x1="311.4" y1="536" x2="311.4" y2="616" style="stroke-width: 1; stroke: rgb(0, 45, 156);"/><circle r="4" cx="311.4" cy="536" style="fill: rgb(0, 45, 156);"/><g transform="translate(311.4, 616)"><g><circle cx="0" cy="0" r="16" style="fill: rgb(0, 45, 156); stroke-width: 0; stroke: transparent; paint-order: stroke;"/><line x1="0" y1="-8" x2="0" y2="8" style="stroke-width: 1.25; stroke: rgb(255, 255, 255);"/><line x1="8" y1="0" x2="-8" y2="0" style="stroke-width: 1.25; stroke: rgb(255, 255, 255);"/></g></g><line x1="367.4" y1="616" x2="367.4" y2="656" style="stroke-width: 1; stroke: rgb(159, 24, 83);"/><circle r="4" cx="367.4" cy="616" style="fill: rgb(159, 24, 83);"/><g><rect x="335.4" y="640" width="64" height="32" style="fill: rgb(159, 24, 83); stroke-width: 0; stroke: transparent; paint-order: stroke;"/><text x="367.4" y="653" dy=".3em" style="font-family: &quot;IBM Plex Sans&quot;, sans-serif; font-size: 16px; font-style: normal; fill: rgb(255, 255, 255); font-weight: 400; text-anchor: middle;">RZ</text><text x="367.4" y="666" dy=".3em" style="font-family: &quot;IBM Plex Mono&quot;, monospace; font-size: 8px; font-style: normal; fill: rgb(255, 255, 255); font-weight: 400; text-anchor: middle;">(-pi / 8)</text></g><line x1="423.4" y1="496" x2="423.4" y2="616" style="stroke-width: 1; stroke: rgb(0, 45, 156);"/><circle r="4" cx="423.4" cy="496" style="fill: rgb(0, 45, 156);"/><g transform="translate(423.4, 616)"><g><circle cx="0" cy="0" r="16" style="fill: rgb(0, 45, 156); stroke-width: 0; stroke: transparent; paint-order: stroke;"/><line x1="0" y1="-8" x2="0" y2="8" style="stroke-width: 1.25; stroke: rgb(255, 255, 255);"/><line x1="8" y1="0" x2="-8" y2="0" style="stroke-width: 1.25; stroke: rgb(255, 255, 255);"/></g></g><polygon points="63.400000000000006,491 63.400000000000006,501 68.4,496" style="fill: rgb(224, 224, 224);"/><polygon points="63.400000000000006,531 63.400000000000006,541 68.4,536" style="fill: rgb(224, 224, 224);"/><polygon points="63.400000000000006,571 63.400000000000006,581 68.4,576" style="fill: rgb(224, 224, 224);"/><polygon points="63.400000000000006,611 63.400000000000006,621 68.4,616" style="fill: rgb(224, 224, 224);"/><polygon points="63.400000000000006,651 63.400000000000006,661 68.4,656" style="fill: rgb(224, 224, 224);"/><polygon points="480,491 480,501 485,496" style="fill: rgb(224, 224, 224);"/><polygon points="480,531 480,541 485,536" style="fill: rgb(224, 224, 224);"/><polygon points="480,571 480,581 485,576" style="fill: rgb(224, 224, 224);"/><polygon points="480,611 480,621 485,616" style="fill: rgb(224, 224, 224);"/><polygon points="480,651 480,661 485,656" style="fill: rgb(224, 224, 224);"/></g><g><g transform="translate(20, 0)"><g><g><text x="38.4" y="726" dy=".3em" style="fill: rgb(111, 111, 111); font-family: &quot;IBM Plex Mono&quot;, monospace; font-weight: 400; text-anchor: end; font-size: 14px;"><tspan>q[0]</tspan></text><text x="38.4" y="766" dy=".3em" style="fill: rgb(111, 111, 111); font-family: &quot;IBM Plex Mono&quot;, monospace; font-weight: 400; text-anchor: end; font-size: 14px;"><tspan>q[1]</tspan></text><text x="38.4" y="806" dy=".3em" style="fill: rgb(111, 111, 111); font-family: &quot;IBM Plex Mono&quot;, monospace; font-weight: 400; text-anchor: end; font-size: 14px;"><tspan>q[2]</tspan></text><text x="38.4" y="846" dy=".3em" style="fill: rgb(111, 111, 111); font-family: &quot;IBM Plex Mono&quot;, monospace; font-weight: 400; text-anchor: end; font-size: 14px;"><tspan>q[3]</tspan></text><text x="38.4" y="886" dy=".3em" style="fill: rgb(111, 111, 111); font-family: &quot;IBM Plex Mono&quot;, monospace; font-weight: 400; text-anchor: end; font-size: 14px;"><tspan>q[4]</tspan></text></g><g/></g></g><g><g><line x1="68.4" x2="480" y1="726" y2="726" style="fill: none; stroke: rgb(224, 224, 224); stroke-width: 1; stroke-linecap: round;"/><line x1="68.4" x2="480" y1="766" y2="766" style="fill: none; stroke: rgb(224, 224, 224); stroke-width: 1; stroke-linecap: round;"/><line x1="68.4" x2="480" y1="806" y2="806" style="fill: none; stroke: rgb(224, 224, 224); stroke-width: 1; stroke-linecap: round;"/><line x1="68.4" x2="480" y1="846" y2="846" style="fill: none; stroke: rgb(224, 224, 224); stroke-width: 1; stroke-linecap: round;"/><line x1="68.4" x2="480" y1="886" y2="886" style="fill: none; stroke: rgb(224, 224, 224); stroke-width: 1; stroke-linecap: round;"/></g></g><line x1="105.9" y1="846" x2="105.9" y2="886" style="stroke-width: 1; stroke: rgb(159, 24, 83);"/><circle r="4" cx="105.9" cy="846" style="fill: rgb(159, 24, 83);"/><g><rect x="76.4" y="870" width="59" height="32" style="fill: rgb(159, 24, 83); stroke-width: 0; stroke: transparent; paint-order: stroke;"/><text x="105.9" y="883" dy=".3em" style="font-family: &quot;IBM Plex Sans&quot;, sans-serif; font-size: 16px; font-style: normal; fill: rgb(255, 255, 255); font-weight: 400; text-anchor: middle;">RZ</text><text x="105.9" y="896" dy=".3em" style="font-family: &quot;IBM Plex Mono&quot;, monospace; font-size: 8px; font-style: normal; fill: rgb(255, 255, 255); font-weight: 400; text-anchor: middle;">(pi / 8)</text></g><line x1="159.4" y1="806" x2="159.4" y2="846" style="stroke-width: 1; stroke: rgb(0, 45, 156);"/><circle r="4" cx="159.4" cy="806" style="fill: rgb(0, 45, 156);"/><g transform="translate(159.4, 846)"><g><circle cx="0" cy="0" r="16" style="fill: rgb(0, 45, 156); stroke-width: 0; stroke: transparent; paint-order: stroke;"/><line x1="0" y1="-8" x2="0" y2="8" style="stroke-width: 1.25; stroke: rgb(255, 255, 255);"/><line x1="8" y1="0" x2="-8" y2="0" style="stroke-width: 1.25; stroke: rgb(255, 255, 255);"/></g></g><line x1="215.4" y1="846" x2="215.4" y2="886" style="stroke-width: 1; stroke: rgb(159, 24, 83);"/><circle r="4" cx="215.4" cy="846" style="fill: rgb(159, 24, 83);"/><g><rect x="183.4" y="870" width="64" height="32" style="fill: rgb(159, 24, 83); stroke-width: 0; stroke: transparent; paint-order: stroke;"/><text x="215.4" y="883" dy=".3em" style="font-family: &quot;IBM Plex Sans&quot;, sans-serif; font-size: 16px; font-style: normal; fill: rgb(255, 255, 255); font-weight: 400; text-anchor: middle;">RZ</text><text x="215.4" y="896" dy=".3em" style="font-family: &quot;IBM Plex Mono&quot;, monospace; font-size: 8px; font-style: normal; fill: rgb(255, 255, 255); font-weight: 400; text-anchor: middle;">(-pi / 8)</text></g><line x1="271.4" y1="726" x2="271.4" y2="846" style="stroke-width: 1; stroke: rgb(0, 45, 156);"/><circle r="4" cx="271.4" cy="726" style="fill: rgb(0, 45, 156);"/><g transform="translate(271.4, 846)"><g><circle cx="0" cy="0" r="16" style="fill: rgb(0, 45, 156); stroke-width: 0; stroke: transparent; paint-order: stroke;"/><line x1="0" y1="-8" x2="0" y2="8" style="stroke-width: 1.25; stroke: rgb(255, 255, 255);"/><line x1="8" y1="0" x2="-8" y2="0" style="stroke-width: 1.25; stroke: rgb(255, 255, 255);"/></g></g><line x1="324.9" y1="846" x2="324.9" y2="886" style="stroke-width: 1; stroke: rgb(159, 24, 83);"/><circle r="4" cx="324.9" cy="846" style="fill: rgb(159, 24, 83);"/><g><rect x="295.4" y="870" width="59" height="32" style="fill: rgb(159, 24, 83); stroke-width: 0; stroke: transparent; paint-order: stroke;"/><text x="324.9" y="883" dy=".3em" style="font-family: &quot;IBM Plex Sans&quot;, sans-serif; font-size: 16px; font-style: normal; fill: rgb(255, 255, 255); font-weight: 400; text-anchor: middle;">RZ</text><text x="324.9" y="896" dy=".3em" style="font-family: &quot;IBM Plex Mono&quot;, monospace; font-size: 8px; font-style: normal; fill: rgb(255, 255, 255); font-weight: 400; text-anchor: middle;">(pi / 8)</text></g><line x1="378.4" y1="766" x2="378.4" y2="846" style="stroke-width: 1; stroke: rgb(0, 45, 156);"/><circle r="4" cx="378.4" cy="766" style="fill: rgb(0, 45, 156);"/><g transform="translate(378.4, 846)"><g><circle cx="0" cy="0" r="16" style="fill: rgb(0, 45, 156); stroke-width: 0; stroke: transparent; paint-order: stroke;"/><line x1="0" y1="-8" x2="0" y2="8" style="stroke-width: 1.25; stroke: rgb(255, 255, 255);"/><line x1="8" y1="0" x2="-8" y2="0" style="stroke-width: 1.25; stroke: rgb(255, 255, 255);"/></g></g><line x1="434.4" y1="846" x2="434.4" y2="886" style="stroke-width: 1; stroke: rgb(159, 24, 83);"/><circle r="4" cx="434.4" cy="846" style="fill: rgb(159, 24, 83);"/><g><rect x="402.4" y="870" width="64" height="32" style="fill: rgb(159, 24, 83); stroke-width: 0; stroke: transparent; paint-order: stroke;"/><text x="434.4" y="883" dy=".3em" style="font-family: &quot;IBM Plex Sans&quot;, sans-serif; font-size: 16px; font-style: normal; fill: rgb(255, 255, 255); font-weight: 400; text-anchor: middle;">RZ</text><text x="434.4" y="896" dy=".3em" style="font-family: &quot;IBM Plex Mono&quot;, monospace; font-size: 8px; font-style: normal; fill: rgb(255, 255, 255); font-weight: 400; text-anchor: middle;">(-pi / 8)</text></g><polygon points="63.400000000000006,721 63.400000000000006,731 68.4,726" style="fill: rgb(224, 224, 224);"/><polygon points="63.400000000000006,761 63.400000000000006,771 68.4,766" style="fill: rgb(224, 224, 224);"/><polygon points="63.400000000000006,801 63.400000000000006,811 68.4,806" style="fill: rgb(224, 224, 224);"/><polygon points="63.400000000000006,841 63.400000000000006,851 68.4,846" style="fill: rgb(224, 224, 224);"/><polygon points="63.400000000000006,881 63.400000000000006,891 68.4,886" style="fill: rgb(224, 224, 224);"/><polygon points="480,721 480,731 485,726" style="fill: rgb(224, 224, 224);"/><polygon points="480,761 480,771 485,766" style="fill: rgb(224, 224, 224);"/><polygon points="480,801 480,811 485,806" style="fill: rgb(224, 224, 224);"/><polygon points="480,841 480,851 485,846" style="fill: rgb(224, 224, 224);"/><polygon points="480,881 480,891 485,886" style="fill: rgb(224, 224, 224);"/></g><g><g transform="translate(20, 0)"><g><g><text x="38.4" y="956" dy=".3em" style="fill: rgb(111, 111, 111); font-family: &quot;IBM Plex Mono&quot;, monospace; font-weight: 400; text-anchor: end; font-size: 14px;"><tspan>q[0]</tspan></text><text x="38.4" y="996" dy=".3em" style="fill: rgb(111, 111, 111); font-family: &quot;IBM Plex Mono&quot;, monospace; font-weight: 400; text-anchor: end; font-size: 14px;"><tspan>q[1]</tspan></text><text x="38.4" y="1036" dy=".3em" style="fill: rgb(111, 111, 111); font-family: &quot;IBM Plex Mono&quot;, monospace; font-weight: 400; text-anchor: end; font-size: 14px;"><tspan>q[2]</tspan></text><text x="38.4" y="1076" dy=".3em" style="fill: rgb(111, 111, 111); font-family: &quot;IBM Plex Mono&quot;, monospace; font-weight: 400; text-anchor: end; font-size: 14px;"><tspan>q[3]</tspan></text><text x="38.4" y="1116" dy=".3em" style="fill: rgb(111, 111, 111); font-family: &quot;IBM Plex Mono&quot;, monospace; font-weight: 400; text-anchor: end; font-size: 14px;"><tspan>q[4]</tspan></text></g><g/></g></g><g><g><line x1="68.4" x2="480" y1="956" y2="956" style="fill: none; stroke: rgb(224, 224, 224); stroke-width: 1; stroke-linecap: round;"/><line x1="68.4" x2="480" y1="996" y2="996" style="fill: none; stroke: rgb(224, 224, 224); stroke-width: 1; stroke-linecap: round;"/><line x1="68.4" x2="480" y1="1036" y2="1036" style="fill: none; stroke: rgb(224, 224, 224); stroke-width: 1; stroke-linecap: round;"/><line x1="68.4" x2="480" y1="1076" y2="1076" style="fill: none; stroke: rgb(224, 224, 224); stroke-width: 1; stroke-linecap: round;"/><line x1="68.4" x2="480" y1="1116" y2="1116" style="fill: none; stroke: rgb(224, 224, 224); stroke-width: 1; stroke-linecap: round;"/></g></g><line x1="92.4" y1="956" x2="92.4" y2="1076" style="stroke-width: 1; stroke: rgb(0, 45, 156);"/><circle r="4" cx="92.4" cy="956" style="fill: rgb(0, 45, 156);"/><g transform="translate(92.4, 1076)"><g><circle cx="0" cy="0" r="16" style="fill: rgb(0, 45, 156); stroke-width: 0; stroke: transparent; paint-order: stroke;"/><line x1="0" y1="-8" x2="0" y2="8" style="stroke-width: 1.25; stroke: rgb(255, 255, 255);"/><line x1="8" y1="0" x2="-8" y2="0" style="stroke-width: 1.25; stroke: rgb(255, 255, 255);"/></g></g><line x1="145.9" y1="1076" x2="145.9" y2="1116" style="stroke-width: 1; stroke: rgb(159, 24, 83);"/><circle r="4" cx="145.9" cy="1076" style="fill: rgb(159, 24, 83);"/><g><rect x="116.4" y="1100" width="59" height="32" style="fill: rgb(159, 24, 83); stroke-width: 0; stroke: transparent; paint-order: stroke;"/><text x="145.9" y="1113" dy=".3em" style="font-family: &quot;IBM Plex Sans&quot;, sans-serif; font-size: 16px; font-style: normal; fill: rgb(255, 255, 255); font-weight: 400; text-anchor: middle;">RZ</text><text x="145.9" y="1126" dy=".3em" style="font-family: &quot;IBM Plex Mono&quot;, monospace; font-size: 8px; font-style: normal; fill: rgb(255, 255, 255); font-weight: 400; text-anchor: middle;">(pi / 8)</text></g><g><rect x="183.4" y="1100" width="32" height="32" style="fill: rgb(250, 77, 86); stroke-width: 0; stroke: transparent; paint-order: stroke;"/><text x="199.4" y="1116" dy=".3em" style="font-family: &quot;IBM Plex Sans&quot;, sans-serif; font-size: 16px; font-style: normal; fill: rgb(22, 22, 22); font-weight: 400; text-anchor: middle;">H</text></g><polygon points="63.400000000000006,951 63.400000000000006,961 68.4,956" style="fill: rgb(224, 224, 224);"/><polygon points="63.400000000000006,991 63.400000000000006,1001 68.4,996" style="fill: rgb(224, 224, 224);"/><polygon points="63.400000000000006,1031 63.400000000000006,1041 68.4,1036" style="fill: rgb(224, 224, 224);"/><polygon points="63.400000000000006,1071 63.400000000000006,1081 68.4,1076" style="fill: rgb(224, 224, 224);"/><polygon points="63.400000000000006,1111 63.400000000000006,1121 68.4,1116" style="fill: rgb(224, 224, 224);"/></g></svg>